<?xml version="1.0" encoding="utf-8"?>
<!DOCTYPE svg PUBLIC "-//W3C//DTD SVG 1.1//EN" "http://www.w3.org/Graphics/SVG/1.1/DTD/svg11.dtd">
<svg xmlns="http://www.w3.org/2000/svg" xmlns:xlink="http://www.w3.org/1999/xlink" version="1.1" baseProfile="full" width="29.0358" height="20.6245" enable-background="new 0 0 29.04 20.62" xml:space="preserve">
	<path fill="none" stroke-linejoin="round" stroke="#B8860B" stroke-opacity="1" d="M 4.99365,2.04724C 5.10255,1.93112 5.42212,1.65994 5.90793,1.38818C 6.64877,0.945679 7.13593,0.875488 7.13593,0.875488L 7.49518,0.7854L 7.83261,0.723602C 8.68243,0.59552 9.14389,0.563538 9.38889,0.561279L 9.64658,0.542755L 10.1809,0.880188L 10.5154,1.06976L 18.589,1.06256C 18.589,1.06256 19.5265,0.500031 19.5986,0.500031C 19.6707,0.500031 21.6251,0.478363 24.005,1.97119C 24.005,1.97119 24.3079,2.44717 24.3728,2.77173L 24.3381,2.77167L 24.4755,2.85953C 24.8794,3.11914 25.2472,3.76822 25.2472,3.76822C 25.2472,3.76822 26.1415,5.90289 27.0934,8.70108C 28.0454,11.4992 28.5358,14.3551 28.5358,16.5763C 28.5358,18.7976 26.1126,20.2399 25.5645,20.0957C 25.0164,19.9514 23.3433,18.0764 22.8817,17.3552C 22.4202,16.634 21.4105,15.6244 20.9201,15.1628C 20.4297,14.7013 19.7086,14.6147 19.3047,14.6147L 9.95825,14.6147C 9.3132,14.6147 9.0063,14.6724 8.19856,15.0763C 7.39087,15.4801 6.29468,17.211 5.16963,18.5668C 4.04459,19.9226 3.29457,20.1245 3.29457,20.1245C 1.88106,19.7784 1.01564,18.8841 0.611786,17.3841C 0.207916,15.884 0.582947,13.9224 1.01564,11.932C 1.44836,9.9415 3.74786,3.78979 3.75612,3.76822C 3.96475,3.21906 4.46033,2.8703 4.67451,2.7403C 4.68367,2.7041 4.78938,2.29675 4.9635,2.08179L 4.9697,2.0676L 4.99365,2.04724 Z M 20.9088,7.82272C 20.9088,8.35446 21.3398,8.78549 21.8716,8.78549C 22.4033,8.78549 22.8344,8.35446 22.8344,7.82272C 22.8344,7.29099 22.4033,6.85992 21.8716,6.85992C 21.3398,6.85992 20.9088,7.29099 20.9088,7.82272 Z M 22.8176,6.03784C 22.8176,6.56958 23.2487,7.00061 23.7804,7.00061C 24.3121,7.00061 24.7432,6.56958 24.7432,6.03784C 24.7432,5.5061 24.3121,5.07507 23.7804,5.07507C 23.2487,5.07507 22.8176,5.5061 22.8176,6.03784 Z M 18.91,5.94043C 18.91,6.47217 19.3411,6.90323 19.8728,6.90323C 20.4045,6.90323 20.8356,6.47217 20.8356,5.94043C 20.8356,5.40872 20.4045,4.97766 19.8728,4.97766C 19.3411,4.97766 18.91,5.40872 18.91,5.94043 Z M 20.9065,4.03052C 20.9065,4.56226 21.3376,4.99332 21.8693,4.99332C 22.401,4.99332 22.832,4.56226 22.832,4.03052C 22.832,3.49881 22.401,3.06775 21.8693,3.06775C 21.3376,3.06775 20.9065,3.49881 20.9065,4.03052 Z M 5.14328,5.84155C 5.14328,6.96475 6.05379,7.87527 7.177,7.87527C 8.30019,7.87527 9.21071,6.96475 9.21071,5.84155C 9.21071,4.71838 8.30019,3.80786 7.177,3.80786C 6.05379,3.80786 5.14328,4.71838 5.14328,5.84155 Z M 16.2566,10.1614C 16.2566,11.2846 17.1671,12.1951 18.2903,12.1951C 19.4135,12.1951 20.324,11.2846 20.324,10.1614C 20.324,9.03818 19.4135,8.12766 18.2903,8.12766C 17.1671,8.12766 16.2566,9.03818 16.2566,10.1614 Z M 10.2028,8.69003L 10.2028,9.95926L 8.93349,9.95926C 8.86182,9.95926 8.80368,10.0174 8.80368,10.0891L 8.80368,10.9545C 8.80368,11.0262 8.86182,11.0843 8.93349,11.0843L 10.2028,11.0843L 10.2028,12.3536C 10.2028,12.4253 10.2609,12.4834 10.3326,12.4834L 11.198,12.4834C 11.2697,12.4834 11.3278,12.4253 11.3278,12.3536L 11.3278,11.0843L 12.5971,11.0843C 12.6688,11.0843 12.7269,11.0262 12.7269,10.9545L 12.7269,10.0891C 12.7269,10.0174 12.6688,9.95926 12.5971,9.95926L 11.3278,9.95926L 11.3278,8.69003C 11.3278,8.61832 11.2697,8.56021 11.198,8.56021L 10.3326,8.56021C 10.2609,8.56021 10.2028,8.61832 10.2028,8.69003 Z "/>
</svg>
