<svg xmlns="http://www.w3.org/2000/svg" xmlns:xlink="http://www.w3.org/1999/xlink" width="146.86" height="144.58" baseProfile="full"><g fill="#A1A1A1"><path d="M18.9 28.77c-.24-.4-.5-.8-.77-1.18a8.25 8.25 0 0 0-1.88-1.9c-.7-.5-1.43-.86-2.18-1.07a6.36 6.36 0 0 0-2.95.03c-1 .23-1.97.7-2.91 1.38a12.48 12.48 0 0 0-4.23 5.32l4.96 7.24c1.32.45 2.66.48 4.03.09a10.74 10.74 0 0 0 3.9-2.03c1.2-.97 2-2.13 2.46-3.48l.01.02c.46-1.4.31-2.87-.45-4.42zm-.29 11.2a9.1 9.1 0 0 1-3.28 1.47c-1.25.3-2.6.38-4.03.26a91.2 91.2 0 0 0 1.74 2.35l.97 1.3.95 1.29a114.35 114.35 0 0 1 3.45 4.64c.15.26.26.53.32.83a3.65 3.65 0 0 1-.44 2.4 2.42 2.42 0 0 1-1.35.33 2.06 2.06 0 0 1-1.43-.73 155.7 155.7 0 0 1-5.94-7.77l-.94-1.3A575.54 575.54 0 0 1 .4 33.1 2.89 2.89 0 0 1 0 31.17a8.63 8.63 0 0 1 .63-1.94 17.36 17.36 0 0 1 5.32-6.22c1.37-1 2.76-1.67 4.17-2.02a9.7 9.7 0 0 1 7.97 1.39c1.21.8 2.3 1.86 3.26 3.19A8.84 8.84 0 0 1 23 29.4a10.84 10.84 0 0 1-2.9 9.25c-.45.5-.95.93-1.48 1.31zM27.79 15.07a2.2 2.2 0 0 1-.2-.99c.01-.28.08-.52.2-.73.12-.2.3-.37.53-.51.23-.14.48-.24.75-.32.48-.13.96-.11 1.44.07s.83.55 1.03 1.1c.48 1.82.88 3.33 1.22 4.53l1.43 5.09a16.6 16.6 0 0 0 .42 1.36l.12.38a4.99 4.99 0 0 0 4.74 3.85c.73.04 1.47-.06 2.22-.3.9-.29 1.73-.61 2.49-.96a7.06 7.06 0 0 0 1.87-1.22c.5-.46.84-1 1.04-1.63.2-.62.2-1.35.03-2.17L44 10.54c-.15-.52-.1-.94.13-1.25.24-.31.6-.54 1.07-.7a5.45 5.45 0 0 1 1.5.06c.45.15.76.36.96.65l.46 1.64c.27.95.52 1.87.75 2.75.23.89.44 1.75.63 2.59a94.5 94.5 0 0 0 .8 3.22 139.97 139.97 0 0 0 .85 3.18 6.33 6.33 0 0 1-.63 4.62 7.56 7.56 0 0 1-1.4 1.77c-.56.53-1.17 1-1.83 1.41-.65.41-1.34.77-2.06 1.07-.72.3-1.41.54-2.07.73-1.36.36-2.68.56-3.95.62a8.74 8.74 0 0 1-3.53-.54 7.21 7.21 0 0 1-2.84-2.03 9.41 9.41 0 0 1-1.9-3.83l-.27-1a92.14 92.14 0 0 1-.76-2.78l-.34-1.21c-.29-1.09-.58-2.17-.89-3.26l-.9-3.18zM61.5 9.68a8.9 8.9 0 0 1 2.9-3.06 8.08 8.08 0 0 1 6.07-1.11 6.75 6.75 0 0 1 3.2 1.77c.42.41.76.84 1.02 1.3.1.16.17.34.23.54.05.19.06.41.05.66l-.1.71c-.03.25-.1.48-.19.7-.09.2-.22.38-.38.52-.17.14-.38.22-.63.23a1.33 1.33 0 0 1-.95-.34l-1.06-.87a6.08 6.08 0 0 0-.94-.64c-.31-.17-.65-.3-1-.37a8.27 8.27 0 0 0-5.37 1.18 6.32 6.32 0 0 0-2.48 3.2 132966.07 132966.07 0 0 1 .45 7.7c.07.98.14 1.86.22 2.64.07.78.16 1.5.26 2.16 0 .19-.06.37-.17.54-.1.17-.25.32-.42.46-.17.13-.38.25-.6.35-.24.1-.47.17-.7.22a2.2 2.2 0 0 1-1.28-.37 1.76 1.76 0 0 1-.75-1.19l-.41-5.27c-.15-1.86-.29-3.74-.42-5.65-.13-1.9-.22-3.79-.29-5.66a70.76 70.76 0 0 1 0-5.33c.06-.66.29-1.17.7-1.55.4-.38.9-.58 1.48-.61a1.8 1.8 0 0 1 1.15.65c.16.18.29.42.38.7.1.27.13.6.13 1l-.1 4.79zM99.16 18.06c.1-.46.2-.92.26-1.38.13-.93.1-1.82-.05-2.67a6.98 6.98 0 0 0-.84-2.28 6.36 6.36 0 0 0-2.15-2.02 8.25 8.25 0 0 0-3.07-1 12.48 12.48 0 0 0-6.72.92l-1.42 8.66a6.63 6.63 0 0 0 2.86 2.85 10.74 10.74 0 0 0 4.23 1.23 7.59 7.59 0 0 0 4.17-.82v.02c1.3-.7 2.2-1.86 2.73-3.51zm-7.94 7.91a9.1 9.1 0 0 1-3.4-1.2 12.86 12.86 0 0 1-3.08-2.6 91.78 91.78 0 0 0-.36 2.9 4641.34 4641.34 0 0 1-1.11 8.95 3.07 3.07 0 0 1-.91 1.48 3.64 3.64 0 0 1-1.41.76 2.42 2.42 0 0 1-1.2-.69 2.06 2.06 0 0 1-.54-1.52 155.87 155.87 0 0 1 1.07-9.71l.22-1.6.24-1.6A575.85 575.85 0 0 1 82.8 8.43c.18-.73.52-1.3 1.03-1.68a8.62 8.62 0 0 1 1.79-.96 17.35 17.35 0 0 1 8.15-.83c1.68.23 3.15.7 4.41 1.42a9.7 9.7 0 0 1 4.8 6.5c.33 1.42.39 2.94.16 4.56a8.83 8.83 0 0 1-1.46 3.91 10.83 10.83 0 0 1-8.48 4.7c-.67.04-1.33 0-1.98-.08zM112.53 32.73c-.38.42-.77.68-1.18.79-.41.1-.83.09-1.25-.05-.83-.29-1.15-1-.96-2.14l-.01.02a3115 3115 0 0 1 5.77-18.64 521.34 521.34 0 0 1 1.89-5.81 144.38 144.38 0 0 1 1.65-4.55l.43-1.05a2.5 2.5 0 0 1 2.51-1.3c.2.13.37.29.53.48.17.2.3.41.42.64.1.23.18.47.22.73.03.26.02.52-.05.76l-9.97 30.12zM140.4 33.5c.4.06.72.01.98-.16.25-.16.5-.41.73-.74.44-.63.7-1.3.81-2a5.35 5.35 0 0 0-.98-3.99 5.26 5.26 0 0 0-1.46-1.42 9.3 9.3 0 0 0-5.67-1.11c-.96.13-1.85.48-2.68 1.05-.84.57-1.66 1.33-2.49 2.28.32.5.7.97 1.15 1.41a17.54 17.54 0 0 0 7.18 4.03c.74.22 1.55.43 2.44.64zm1.32 3.54a9.63 9.63 0 0 1-2.74-.32 23.1 23.1 0 0 1-3.08-1 31.53 31.53 0 0 1-3-1.4 23.1 23.1 0 0 1-3.76-2.46c-.42-.35-.9-.78-1.4-1.3-.94 2.23-1.25 4.22-.96 5.97a6.8 6.8 0 0 0 3.03 4.45c.55.39 1.14.7 1.77.94a9.36 9.36 0 0 0 3.96.6c.67-.04 1.31-.13 1.93-.29.26-.06.54-.02.83.1.29.13.5.25.64.35.3.2.47.5.52.86.04.36-.04.7-.26 1a2.8 2.8 0 0 1-.71.7c-.3.2-.66.37-1.08.5-.87.28-1.76.43-2.68.46a12.72 12.72 0 0 1-5.37-1c-.85-.35-1.62-.77-2.32-1.27a9.6 9.6 0 0 1-3.95-6.14 12.9 12.9 0 0 1 0-4.8 18.42 18.42 0 0 1 2.75-6.75 16.77 16.77 0 0 1 3.61-3.56c1.37-.98 2.8-1.69 4.31-2.12a11.1 11.1 0 0 1 4.61-.31c1.57.22 3.07.83 4.5 1.84a9.53 9.53 0 0 1 2.79 2.96 9.05 9.05 0 0 1 1.2 3.53 9.92 9.92 0 0 1-.27 3.72 10.96 10.96 0 0 1-1.68 3.55c-.36.44-.8.75-1.3.91-.5.16-1.13.26-1.89.28z"/></g><path fill="#706CF5" d="M77.25 74.11C89.81 85.34 101.86 69.3 112 57.97c10.13-11.33 9-19.67-3.56-30.9-12.55-11.22-28.13-5.3-38.26 6.04-10.14 11.33-5.48 29.77 7.07 41z"/><path fill="#4441A4" d="M79.45 73.38l-.6-.27-.52-.16h-.03c-1.17-.23-2.83 1.42-2.2 2.46 3.18 4.54 11.26 5.55 15.93 3.45 8.96-4.03 15.5-11.93 21.6-19.43 3.9-4.84 8.4-10.49 7.97-17-.43-6.6-5.77-13.17-11.27-17.46-4.96-3.53-11.23-5.85-17.02-5.72-9.63.2-18.86 5.42-24.91 12.27-6.58 8.19-6.82 22.36-1.81 32.66 2.12 4.36 4.94 9.26 9.33 11.43.8.35 2.02.4 2.5-.24.47-.65.35-1.73-.04-2.52-1-2.2-3.05-3.83-4.63-5.7a32.8 32.8 0 0 1-6.29-11.02c-2.3-7.37-.5-16.27 4.23-21.67 3.86-4.02 8.61-7.75 14.23-9.02 6.6-1.5 14.94-.71 20.84 3.51 4.17 3.35 8.83 7.76 9.51 12.82.73 5.45-3.23 10.2-6.2 14.47-4.7 6.58-9.3 13.86-16.47 17.78-3.95 2.16-9.9 1.8-14.15-.64z"/><path fill="#9794FF" d="M87.41 65.06c8.73 7.8 17.1-3.34 24.16-11.22 7.04-7.88 6.25-13.67-2.48-21.48-8.73-7.8-19.55-3.68-26.6 4.2-7.05 7.87-3.8 20.7 4.92 28.5z"/><path fill="#706CF5" stroke="#4441A4" stroke-linejoin="round" stroke-width="5" d="M37.56 80.56c10.92 9.77 24.63-7.79 35.9-20.38 11.27-12.6 11.15-20.83.23-30.6-10.92-9.77-26.85-1.94-38.12 10.66a28.53 28.53 0 0 0 1.99 40.32z"/><path fill="#9794FF" d="M50.94 68.19c6.96 6.23 15.7-4.97 22.9-13 7.18-8.04 7.1-13.28.14-19.51-6.96-6.23-17.12-1.24-24.3 6.8a18.2 18.2 0 0 0 1.26 25.7z"/><g><path fill="#706CF5" d="M66.61 84.42c10.86-12.87-5.51-24.46-17.13-34.27-11.62-9.8-19.91-8.43-30.78 4.44-10.86 12.87-4.49 28.27 7.13 38.08 11.62 9.8 29.92 4.62 40.78-8.25z"/><path fill="#4441A4" d="M65.82 82.25l-.26.6-.14.53v.03c-.2 1.17 1.5 2.78 2.52 2.13 4.45-3.32 5.23-11.42 3-16.03-4.29-8.84-12.37-15.14-20.05-21.04-4.94-3.75-10.72-8.09-17.21-7.47-6.6.62-13 6.14-17.14 11.77-3.38 5.05-5.52 11.4-5.23 17.18.48 9.6 5.96 18.7 12.98 24.54 8.38 6.34 22.55 6.17 32.7.87 4.3-2.24 9.11-5.2 11.15-9.65.34-.8.36-2.04-.3-2.5-.66-.45-1.75-.3-2.52.12-2.17 1.06-3.74 3.16-5.57 4.78a32.81 32.81 0 0 1-10.83 6.61c-7.3 2.51-16.25.97-21.78-3.6-4.14-3.75-8-8.4-9.43-13.97-1.69-6.56-1.14-14.91 2.92-20.93 3.22-4.26 7.5-9.05 12.54-9.88 5.42-.89 10.28 2.95 14.64 5.8 6.71 4.5 14.12 8.9 18.24 15.94 2.27 3.88 2.1 9.84-.23 14.17z"/><path fill="#9794FF" d="M53.55 80.66c7.66-9.08-3.9-17.25-12.09-24.17-8.2-6.92-14.05-5.95-21.71 3.13-7.67 9.08-3.17 19.94 5.03 26.86 8.2 6.92 21.1 3.26 28.77-5.82z"/></g><g><path fill="#706CF5" d="M98.02 65.16c0-13.47-15.5-15.96-27.94-15.96-12.44 0-17.11 2.49-17.11 15.96 0 13.48 9.56 20.37 22 20.37s23.05-6.9 23.05-20.37z"/><path fill="#4441A4" d="M96.38 64.28l.35.88c.59.75 2.42.93 2.72 0 1.15-4.52-2.45-9.91-6.12-12.4C86.6 48.22 78 47.44 70.08 47.5c-5.21.18-11.3-.41-15.38 3.11-3.65 3.15-4.26 9.52-3.9 14.55.6 5.41 2.55 11.1 6.13 14.93 4.57 4.9 11.62 7.41 18.04 7.3 7.28-.38 15.46-2.79 20.35-8.64 2.97-3.56 5.65-9 4.36-13.59-.23-.67-.86-1.43-1.52-1.37-.66.06-1.21.74-1.53 1.37-.88 1.54-.65 3.54-1.04 5.3a15.95 15.95 0 0 1-3.2 6.84c-4.18 4.9-11.27 6.64-17.42 6.63-4.24-.17-8.87-.97-12.26-3.74-4.2-3.44-6.97-9.36-7.57-15.03-.22-3.82-.25-8.67 2.41-11.19 3.2-3.02 8.3-2.11 12.53-2.53 6.43-.45 13.5-1.05 19.22 2.15 3.6 2.01 6.3 6.39 7.08 10.7z"/><path fill="#9794FF" d="M97.3 69.75c0-8.53-9.82-10.1-17.7-10.1-7.88 0-10.83 1.57-10.83 10.1 0 8.54 6.05 12.9 13.93 12.9 7.87 0 14.6-4.36 14.6-12.9z"/></g><g><path fill="#706CF5" d="M110.87 43.49c-16.47 0-19.51 15.5-19.51 27.94 0 12.44 3.04 17.11 19.51 17.11 16.48 0 24.9-9.56 24.9-22s-8.42-23.05-24.9-23.05z"/><path fill="#4441A4" d="M109.8 45.13l.6-.16.47-.19c1-.51 1.14-2.42 0-2.72-5.52-1.15-12.12 2.45-15.16 6.12-5.55 6.72-6.5 15.33-6.43 23.25.22 5.21-.5 11.3 3.8 15.38 3.85 3.65 11.64 4.26 17.8 3.9 6.6-.6 13.57-2.55 18.25-6.13 5.98-4.57 9.17-11.62 8.93-18.04-.59-7.27-3.41-15.46-10.58-20.35-4.34-2.97-11-5.65-16.6-4.36-.83.23-1.75.86-1.68 1.52.07.66.9 1.21 1.67 1.53 1.88.88 4.33.65 6.48 1.04 3.04.55 6.07 1.6 8.36 3.2 5.98 4.18 8.13 11.26 8.1 17.42-.19 4.24-1.18 8.87-4.57 12.26-4.2 4.2-11.44 6.97-18.37 7.57-4.67.22-10.6.25-13.68-2.41-3.7-3.2-2.58-8.3-3.09-12.53-.55-6.43-1.13-13.44 2.62-19.22 2.35-3.64 7.85-6.16 13.08-7.08z"/><path fill="#9794FF" d="M113.8 53.61c-12.76 0-15.11 12-15.11 21.64s2.35 13.26 15.12 13.26c12.76 0 19.29-7.4 19.29-17.04 0-9.64-6.53-17.86-19.3-17.86z"/></g><g><path fill="#CE6E11" d="M27.4 112.1h-9.33L7.6 71.48h131.66l-9.2 40.6H27.41"/><defs><path id="a" d="M27.4 112.1h-9.33L7.6 71.48h131.66l-9.2 40.6H27.41"/></defs><clipPath id="b"><use overflow="visible" xlink:href="#a"/></clipPath><g clip-path="url(#b)"><path fill="#FF9E40" d="M130.06 112.17l9.77-40.5h-28.84l-12.96 40.58"/><path fill="#FFF" fill-rule="evenodd" d="M37.97 94.7a5.7 5.7 0 0 1-8.28-2.23c-.47-.25-.9-.5-1.3-.77a6.67 6.67 0 0 0 11.1 2.97c-.47.04-.98.05-1.52.03zm-8.75-3.6a10.5 10.5 0 0 1-1.05-.71c-1.15-.92-1.74-1.87-1.51-2.68.21-.8 1.2-1.33 2.64-1.53a6.66 6.66 0 0 1 12.17 3.3c1.14.92 1.73 1.87 1.51 2.68-.22.8-1.21 1.33-2.67 1.53-.4.06-.82.09-1.27.1-1.47.02-3.24-.2-5.08-.7a18.6 18.6 0 0 1-4.74-1.98zm10.56 1.68c.48-.83.76-1.8.76-2.82v-.04a5.73 5.73 0 0 0-11.45 0c1.2.8 3 1.58 5.08 2.15 2.16.59 4.17.82 5.61.71zm1.15-.2c.57-.16.94-.43 1.04-.79.1-.37-.1-.8-.52-1.24v.1a6.62 6.62 0 0 1-.52 1.94zm-12.17-5.44l.05-.1c-.68.16-1.1.44-1.22.84-.1.4.12.85.6 1.32.08-.73.28-1.42.57-2.06zm28.8 7.56a5.7 5.7 0 0 1-8.28-2.23c-.47-.25-.9-.5-1.3-.77a6.67 6.67 0 0 0 11.1 2.97c-.47.04-.98.05-1.51.03zm-8.75-3.6c-.39-.23-.74-.47-1.05-.71-1.14-.92-1.73-1.87-1.51-2.68.22-.8 1.2-1.33 2.65-1.53a6.66 6.66 0 0 1 12.16 3.3c1.15.92 1.74 1.87 1.52 2.68-.23.8-1.22 1.33-2.68 1.53-.39.06-.81.09-1.27.1-1.47.02-3.23-.2-5.08-.7a18.6 18.6 0 0 1-4.74-1.98zm10.56 1.68c.48-.83.76-1.8.77-2.82v-.04a5.73 5.73 0 0 0-11.46 0c1.2.8 3 1.58 5.09 2.15 2.15.59 4.16.82 5.6.71zm1.15-.2c.57-.16.94-.43 1.04-.79.1-.37-.1-.8-.52-1.24v.1a6.62 6.62 0 0 1-.52 1.94zm-12.16-5.44l.04-.1c-.67.16-1.1.44-1.21.84-.11.4.11.85.6 1.32.07-.73.27-1.42.57-2.06zm28.8 7.56a5.7 5.7 0 0 1-8.28-2.23c-.48-.25-.91-.5-1.3-.77a6.67 6.67 0 0 0 11.1 2.97c-.47.04-.98.05-1.52.03zm-8.76-3.6a10.5 10.5 0 0 1-1.04-.71c-1.15-.92-1.74-1.87-1.52-2.68.22-.8 1.2-1.33 2.65-1.53a6.66 6.66 0 0 1 12.16 3.3c1.15.92 1.74 1.87 1.52 2.68-.22.8-1.22 1.33-2.67 1.53-.4.06-.82.09-1.27.1-1.48.02-3.24-.2-5.08-.7a18.6 18.6 0 0 1-4.75-1.98zm10.57 1.68c.48-.83.75-1.8.76-2.82v-.04a5.73 5.73 0 0 0-11.45 0c1.19.8 3 1.58 5.08 2.15 2.15.59 4.16.82 5.6.71zm1.14-.2c.58-.16.95-.43 1.04-.79.1-.37-.09-.8-.51-1.24l-.01.1a6.62 6.62 0 0 1-.52 1.94zm-12.16-5.44l.05-.1c-.68.16-1.11.44-1.22.84-.1.4.12.85.6 1.32.08-.73.27-1.42.57-2.06zm28.8 7.56a5.7 5.7 0 0 1-8.28-2.23c-.47-.25-.9-.5-1.3-.77a6.67 6.67 0 0 0 11.1 2.97c-.47.04-.98.05-1.52.03zM88 91.1c-.38-.23-.73-.47-1.04-.71-1.15-.92-1.74-1.87-1.52-2.68.22-.8 1.2-1.33 2.65-1.53a6.66 6.66 0 0 1 12.17 3.3c1.14.92 1.73 1.87 1.51 2.68-.22.8-1.22 1.33-2.67 1.53-.4.06-.82.09-1.27.1-1.47.02-3.24-.2-5.08-.7a18.6 18.6 0 0 1-4.75-1.98zm10.57 1.68c.48-.83.76-1.8.76-2.82v-.04a5.73 5.73 0 0 0-11.45 0c1.2.8 3 1.58 5.08 2.15 2.15.59 4.16.82 5.6.71zm1.14-.2c.58-.16.95-.43 1.05-.79.1-.37-.1-.8-.52-1.24v.1a6.63 6.63 0 0 1-.53 1.94zm-12.16-5.44l.05-.1c-.68.16-1.11.44-1.22.84-.1.4.12.85.6 1.32.08-.73.28-1.42.57-2.06zM18.38 94.7a5.7 5.7 0 0 1-8.28-2.23c-.48-.25-.91-.5-1.3-.77a6.67 6.67 0 0 0 11.1 2.97c-.47.04-.98.05-1.52.03zm-8.76-3.6c-.38-.23-.73-.47-1.04-.71-1.15-.92-1.74-1.87-1.52-2.68.22-.8 1.2-1.33 2.65-1.53a6.66 6.66 0 0 1 12.16 3.3c1.15.92 1.74 1.87 1.52 2.68-.22.8-1.22 1.33-2.67 1.53-.4.06-.82.09-1.27.1-1.47.02-3.24-.2-5.08-.7a18.6 18.6 0 0 1-4.75-1.98zm10.57 1.68c.48-.83.76-1.8.76-2.82v-.04a5.73 5.73 0 0 0-11.45 0c1.2.8 3 1.58 5.08 2.15 2.15.59 4.16.82 5.6.71zm1.14-.2c.58-.16.95-.43 1.05-.79.1-.37-.1-.8-.52-1.24l-.01.1a6.62 6.62 0 0 1-.52 1.94zM9.17 87.15l.05-.1c-.68.16-1.11.44-1.22.84-.1.4.12.85.6 1.32.08-.73.28-1.42.57-2.06zm126.77 7.56a5.73 5.73 0 0 1-8.28-2.23c-.48-.25-.91-.5-1.3-.77a6.67 6.67 0 0 0 11.1 2.97c-.48.04-.98.05-1.52.03zm-8.76-3.6c-.39-.23-.74-.47-1.05-.71-1.14-.92-1.73-1.87-1.51-2.68.22-.8 1.2-1.33 2.65-1.53a6.65 6.65 0 0 1 12.16 3.3c1.15.92 1.74 1.87 1.52 2.68-.22.8-1.22 1.33-2.68 1.53-.39.06-.81.09-1.27.1-1.47.02-3.23-.2-5.07-.7a18.6 18.6 0 0 1-4.75-1.98zm10.56 1.68c.48-.83.76-1.8.77-2.82v-.04a5.73 5.73 0 0 0-11.45 0c1.19.8 3 1.58 5.08 2.15 2.15.59 4.16.82 5.6.71zm1.15-.2c.57-.16.94-.43 1.04-.79.1-.37-.09-.8-.52-1.24v.1a6.62 6.62 0 0 1-.52 1.94zm-12.16-5.44l.04-.1c-.67.16-1.1.44-1.21.84-.11.4.11.85.6 1.32a6.6 6.6 0 0 1 .57-2.06zm-10.39 7.56a5.7 5.7 0 0 1-8.28-2.23c-.47-.25-.9-.5-1.3-.77a6.67 6.67 0 0 0 11.1 2.97c-.47.04-.98.05-1.52.03zm-8.75-3.6c-.39-.23-.74-.47-1.05-.71-1.15-.92-1.73-1.87-1.51-2.68.22-.8 1.2-1.33 2.64-1.53a6.66 6.66 0 0 1 12.17 3.3c1.14.92 1.73 1.87 1.51 2.68-.22.8-1.21 1.33-2.67 1.53-.39.06-.82.09-1.27.1-1.47.02-3.23-.2-5.08-.7a18.6 18.6 0 0 1-4.74-1.98zm10.56 1.68c.48-.83.76-1.8.77-2.82v-.04a5.73 5.73 0 0 0-11.46 0c1.2.8 3 1.58 5.08 2.15 2.16.59 4.17.82 5.61.71zm1.15-.2c.57-.16.94-.43 1.04-.79.1-.37-.1-.8-.52-1.24v.1a6.6 6.6 0 0 1-.52 1.94zm-12.17-5.44l.05-.1c-.68.16-1.1.44-1.22.84-.1.4.12.85.6 1.32.08-.73.28-1.42.57-2.06zM37.97 113.3a5.73 5.73 0 0 1-8.28-2.22c-.47-.26-.9-.52-1.3-.78a6.67 6.67 0 0 0 11.1 2.97c-.47.04-.98.05-1.52.03zm-8.75-3.6c-.39-.23-.74-.47-1.05-.71-1.15-.92-1.74-1.87-1.51-2.68.21-.8 1.2-1.33 2.64-1.53a6.65 6.65 0 0 1 12.17 3.3c1.14.92 1.73 1.87 1.51 2.68-.22.8-1.21 1.33-2.67 1.53-.4.06-.82.09-1.27.1-1.47.02-3.24-.2-5.08-.7-1.85-.5-3.49-1.21-4.74-1.98zm10.56 1.68c.48-.83.76-1.8.76-2.82v-.04a5.73 5.73 0 0 0-11.45 0c1.2.8 3 1.58 5.08 2.15 2.16.58 4.17.82 5.61.7zm1.15-.2c.57-.16.94-.43 1.04-.79.1-.37-.1-.8-.52-1.24v.09a6.61 6.61 0 0 1-.52 1.95zm-12.17-5.44l.05-.1c-.68.16-1.1.44-1.22.84-.1.39.12.85.6 1.32.08-.73.28-1.42.57-2.06zm28.8 7.56a5.7 5.7 0 0 1-8.28-2.23c-.47-.25-.9-.5-1.3-.77a6.67 6.67 0 0 0 11.1 2.97c-.47.04-.98.05-1.51.03zm-8.75-3.6c-.39-.23-.74-.47-1.05-.71-1.14-.92-1.73-1.87-1.51-2.68.22-.8 1.2-1.33 2.65-1.53a6.65 6.65 0 0 1 12.16 3.3c1.15.92 1.74 1.87 1.52 2.68-.23.8-1.22 1.33-2.68 1.53-.39.06-.81.09-1.27.1-1.47.02-3.23-.2-5.08-.7-1.84-.5-3.48-1.21-4.74-1.98zm10.56 1.68c.48-.83.76-1.8.77-2.82v-.04a5.73 5.73 0 0 0-11.46 0c1.2.8 3 1.58 5.09 2.15 2.15.58 4.16.82 5.6.7zm1.15-.2c.57-.16.94-.43 1.04-.79.1-.37-.1-.8-.52-1.24v.09a6.61 6.61 0 0 1-.52 1.95zm-12.16-5.44l.04-.1c-.67.16-1.1.44-1.21.84-.11.39.11.85.6 1.32.07-.73.27-1.42.57-2.06zm28.8 7.56a5.7 5.7 0 0 1-8.28-2.23c-.48-.25-.91-.5-1.3-.77a6.67 6.67 0 0 0 11.1 2.97c-.47.04-.98.05-1.52.03zm-8.76-3.6c-.38-.23-.73-.47-1.04-.71-1.15-.92-1.74-1.87-1.52-2.68.22-.8 1.2-1.33 2.65-1.53a6.65 6.65 0 0 1 12.16 3.3c1.15.92 1.74 1.87 1.52 2.68-.22.8-1.22 1.33-2.67 1.53-.4.06-.82.09-1.27.1-1.48.02-3.24-.2-5.08-.7-1.85-.5-3.49-1.21-4.75-1.98zm10.57 1.68c.48-.83.75-1.8.76-2.82v-.04a5.73 5.73 0 0 0-11.45 0c1.19.8 3 1.58 5.08 2.15 2.15.58 4.16.82 5.6.7zm1.14-.2c.58-.16.95-.43 1.04-.79.1-.37-.09-.8-.51-1.24l-.01.09a6.61 6.61 0 0 1-.52 1.95zm-12.16-5.44l.05-.1c-.68.16-1.11.44-1.22.84-.1.39.12.85.6 1.32.08-.73.27-1.42.57-2.06zm28.8 7.56a5.73 5.73 0 0 1-8.28-2.22c-.47-.26-.9-.52-1.3-.78a6.67 6.67 0 0 0 11.1 2.97c-.47.04-.98.05-1.52.03zM88 109.7c-.38-.23-.73-.47-1.04-.71-1.15-.92-1.74-1.87-1.52-2.68.22-.8 1.2-1.33 2.65-1.53a6.65 6.65 0 0 1 12.17 3.3c1.14.92 1.73 1.87 1.51 2.68-.22.8-1.22 1.33-2.67 1.53-.4.06-.82.09-1.27.1-1.47.02-3.24-.2-5.08-.7-1.85-.5-3.49-1.21-4.75-1.98zm10.57 1.68c.48-.83.76-1.8.76-2.82v-.04a5.73 5.73 0 0 0-11.45 0c1.2.8 3 1.58 5.08 2.15 2.15.58 4.16.82 5.6.7zm1.14-.2c.58-.16.95-.43 1.05-.79.1-.37-.1-.8-.52-1.24v.09a6.62 6.62 0 0 1-.53 1.95zm-12.16-5.44l.05-.1c-.68.16-1.11.44-1.22.84-.1.39.12.85.6 1.32.08-.73.28-1.42.57-2.06zm-69.16 7.56a5.73 5.73 0 0 1-8.28-2.22c-.48-.26-.91-.52-1.3-.78a6.67 6.67 0 0 0 11.1 2.97c-.47.04-.98.05-1.52.03zm-8.76-3.6a10.6 10.6 0 0 1-1.04-.71c-1.15-.92-1.74-1.87-1.52-2.68.22-.8 1.2-1.33 2.65-1.53a6.65 6.65 0 0 1 12.16 3.3c1.15.92 1.74 1.87 1.52 2.68-.22.8-1.22 1.33-2.67 1.53-.4.06-.82.09-1.27.1-1.47.02-3.24-.2-5.08-.7-1.85-.5-3.49-1.21-4.75-1.98zm10.57 1.68c.48-.83.76-1.8.76-2.82v-.04a5.73 5.73 0 0 0-11.45 0c1.2.8 3 1.58 5.08 2.15 2.15.58 4.16.82 5.6.7zm1.14-.2c.58-.16.95-.43 1.05-.79.1-.37-.1-.8-.52-1.24l-.01.09a6.61 6.61 0 0 1-.52 1.95zm-12.16-5.44l.05-.1c-.68.16-1.11.44-1.22.84-.1.39.12.85.6 1.32.08-.73.28-1.42.57-2.06zm126.77 7.56a5.73 5.73 0 0 1-8.28-2.22c-.48-.26-.91-.52-1.3-.78a6.67 6.67 0 0 0 11.1 2.97c-.48.04-.98.05-1.52.03zm-8.76-3.6c-.39-.23-.74-.47-1.05-.71-1.14-.92-1.73-1.87-1.51-2.68.22-.8 1.2-1.33 2.65-1.53a6.65 6.65 0 0 1 12.16 3.3c1.15.92 1.74 1.87 1.52 2.68-.22.8-1.22 1.33-2.68 1.53-.39.06-.81.09-1.27.1-1.47.02-3.23-.2-5.07-.7-1.85-.5-3.5-1.21-4.75-1.98zm10.56 1.68c.48-.83.76-1.8.77-2.82v-.04a5.73 5.73 0 0 0-11.45 0c1.19.8 3 1.58 5.08 2.15 2.15.58 4.16.82 5.6.7zm1.15-.2c.57-.16.94-.43 1.04-.79.1-.37-.09-.8-.52-1.24v.09a6.62 6.62 0 0 1-.52 1.95zm-12.16-5.44l.04-.1c-.67.16-1.1.44-1.21.84-.11.39.11.85.6 1.32.08-.73.27-1.42.57-2.06zm-10.39 7.56a5.7 5.7 0 0 1-8.28-2.23c-.47-.25-.9-.5-1.3-.77a6.67 6.67 0 0 0 11.1 2.97c-.47.04-.98.05-1.52.03zm-8.75-3.6a10.6 10.6 0 0 1-1.05-.71c-1.15-.92-1.73-1.87-1.51-2.68.22-.8 1.2-1.33 2.64-1.53a6.65 6.65 0 0 1 12.17 3.3c1.14.92 1.73 1.87 1.51 2.68-.22.8-1.21 1.33-2.67 1.53-.39.06-.82.09-1.27.1-1.47.02-3.23-.2-5.08-.7-1.84-.5-3.48-1.21-4.74-1.98zm10.56 1.68c.48-.83.76-1.8.77-2.82v-.04a5.73 5.73 0 0 0-11.46 0c1.2.8 3 1.58 5.08 2.15 2.16.58 4.17.82 5.61.7zm1.15-.2c.57-.16.94-.43 1.04-.79.1-.37-.1-.8-.52-1.24v.09a6.59 6.59 0 0 1-.52 1.95zm-12.17-5.44l.05-.1c-.68.16-1.1.44-1.22.84-.1.39.12.85.6 1.32.08-.73.28-1.42.57-2.06zM37.97 76.09a5.7 5.7 0 0 1-8.28-2.23c-.47-.25-.9-.5-1.3-.77a6.67 6.67 0 0 0 11.1 2.97c-.47.04-.98.05-1.52.03zm-8.75-3.59a10.5 10.5 0 0 1-1.05-.72c-1.15-.92-1.74-1.87-1.51-2.68.21-.8 1.2-1.33 2.64-1.53a6.66 6.66 0 0 1 12.17 3.3c1.14.92 1.73 1.87 1.51 2.68-.22.8-1.21 1.33-2.67 1.53-.4.06-.82.09-1.27.1-1.47.02-3.24-.2-5.08-.7a18.6 18.6 0 0 1-4.74-1.98zm10.56 1.67c.48-.83.76-1.8.76-2.82v-.04a5.73 5.73 0 0 0-11.45 0c1.2.8 3 1.58 5.08 2.15 2.16.59 4.17.82 5.61.71zm1.15-.2c.57-.16.94-.43 1.04-.79.1-.37-.1-.8-.52-1.24v.1a6.62 6.62 0 0 1-.52 1.94zm-12.17-5.44l.05-.1c-.68.16-1.1.44-1.22.84-.1.4.12.85.6 1.32.08-.73.28-1.42.57-2.06zm28.8 7.56a5.7 5.7 0 0 1-8.28-2.23c-.47-.25-.9-.5-1.3-.77a6.67 6.67 0 0 0 11.1 2.97c-.47.04-.98.05-1.51.03zm-8.75-3.59c-.39-.24-.74-.48-1.05-.72-1.14-.92-1.73-1.87-1.51-2.68.22-.8 1.2-1.33 2.65-1.53a6.66 6.66 0 0 1 12.16 3.3c1.15.92 1.74 1.87 1.52 2.68-.23.8-1.22 1.33-2.68 1.53-.39.06-.81.09-1.27.1-1.47.02-3.23-.2-5.08-.7a18.6 18.6 0 0 1-4.74-1.98zm10.56 1.67c.48-.83.76-1.8.77-2.82v-.04a5.73 5.73 0 0 0-11.46 0c1.2.8 3 1.58 5.09 2.15 2.15.59 4.16.82 5.6.71zm1.15-.2c.57-.16.94-.43 1.04-.79.1-.37-.1-.8-.52-1.24v.1a6.62 6.62 0 0 1-.52 1.94zm-12.16-5.44l.04-.1c-.67.16-1.1.44-1.21.84-.11.4.11.85.6 1.32.07-.73.27-1.42.57-2.06zm28.8 7.56a5.7 5.7 0 0 1-8.28-2.23c-.48-.25-.91-.5-1.3-.77a6.67 6.67 0 0 0 11.1 2.97c-.47.04-.98.05-1.52.03zM68.4 72.5a10.5 10.5 0 0 1-1.04-.72c-1.15-.92-1.74-1.87-1.52-2.68.22-.8 1.2-1.33 2.65-1.53a6.66 6.66 0 0 1 12.16 3.3c1.15.92 1.74 1.87 1.52 2.68-.22.8-1.22 1.33-2.67 1.53-.4.06-.82.09-1.27.1-1.48.02-3.24-.2-5.08-.7a18.6 18.6 0 0 1-4.75-1.98zm10.57 1.67c.48-.83.75-1.8.76-2.82v-.04a5.73 5.73 0 0 0-11.45 0c1.19.8 3 1.58 5.08 2.15 2.15.59 4.16.82 5.6.71zm1.14-.2c.58-.16.95-.43 1.04-.79.1-.37-.09-.8-.51-1.24l-.01.1a6.62 6.62 0 0 1-.52 1.94zm-12.16-5.44l.05-.1c-.68.16-1.11.44-1.22.84-.1.4.12.85.6 1.32.08-.73.27-1.42.57-2.06zm28.8 7.56a5.7 5.7 0 0 1-8.28-2.23c-.47-.25-.9-.5-1.3-.77a6.67 6.67 0 0 0 11.1 2.97c-.47.04-.98.05-1.52.03zM88 72.5c-.38-.24-.73-.48-1.04-.72-1.15-.92-1.74-1.87-1.52-2.68.22-.8 1.2-1.33 2.65-1.53a6.66 6.66 0 0 1 12.17 3.3c1.14.92 1.73 1.87 1.51 2.68-.22.8-1.22 1.33-2.67 1.53-.4.06-.82.09-1.27.1-1.47.02-3.24-.2-5.08-.7a18.6 18.6 0 0 1-4.75-1.98zm10.57 1.67c.48-.83.76-1.8.76-2.82v-.04a5.73 5.73 0 0 0-11.45 0c1.2.8 3 1.58 5.08 2.15 2.15.59 4.16.82 5.6.71zm1.14-.2c.58-.16.95-.43 1.05-.79.1-.37-.1-.8-.52-1.24v.1a6.63 6.63 0 0 1-.53 1.94zm-12.16-5.44l.05-.1c-.68.16-1.11.44-1.22.84-.1.4.12.85.6 1.32.08-.73.28-1.42.57-2.06zm-69.16 7.56a5.7 5.7 0 0 1-8.28-2.23c-.48-.25-.91-.5-1.3-.77a6.67 6.67 0 0 0 11.1 2.97c-.47.04-.98.05-1.52.03zM9.62 72.5c-.38-.24-.73-.48-1.04-.72-1.15-.92-1.74-1.87-1.52-2.68.22-.8 1.2-1.33 2.65-1.53a6.66 6.66 0 0 1 12.16 3.3c1.15.92 1.74 1.87 1.52 2.68-.22.8-1.22 1.33-2.67 1.53-.4.06-.82.09-1.27.1-1.47.02-3.24-.2-5.08-.7a18.6 18.6 0 0 1-4.75-1.98zm10.57 1.67c.48-.83.76-1.8.76-2.82v-.04a5.73 5.73 0 0 0-11.45 0c1.2.8 3 1.58 5.08 2.15 2.15.59 4.16.82 5.6.71zm1.14-.2c.58-.16.95-.43 1.05-.79.1-.37-.1-.8-.52-1.24l-.01.1a6.62 6.62 0 0 1-.52 1.94zM9.17 68.54l.05-.1c-.68.16-1.11.44-1.22.84-.1.4.12.85.6 1.32.08-.73.28-1.42.57-2.06zm126.77 7.56a5.73 5.73 0 0 1-8.28-2.23c-.48-.25-.91-.5-1.3-.77a6.67 6.67 0 0 0 11.1 2.97c-.48.04-.98.05-1.52.03zm-8.76-3.59c-.39-.24-.74-.48-1.05-.72-1.14-.92-1.73-1.87-1.51-2.68.22-.8 1.2-1.33 2.65-1.53a6.65 6.65 0 0 1 12.16 3.3c1.15.92 1.74 1.87 1.52 2.68-.22.8-1.22 1.33-2.68 1.53-.39.06-.81.09-1.27.1-1.47.02-3.23-.2-5.07-.7a18.6 18.6 0 0 1-4.75-1.98zm10.56 1.67c.48-.83.76-1.8.77-2.82v-.04a5.73 5.73 0 0 0-11.45 0c1.19.8 3 1.58 5.08 2.15 2.15.59 4.16.82 5.6.71zm1.15-.2c.57-.16.94-.43 1.04-.79.1-.37-.09-.8-.52-1.24v.1a6.62 6.62 0 0 1-.52 1.94zm-12.16-5.44l.04-.1c-.67.16-1.1.44-1.21.84-.11.4.11.85.6 1.32a6.6 6.6 0 0 1 .57-2.06zm-10.39 7.56a5.7 5.7 0 0 1-8.28-2.23c-.47-.25-.9-.5-1.3-.77a6.67 6.67 0 0 0 11.1 2.97c-.47.04-.98.05-1.52.03zm-8.75-3.59c-.39-.24-.74-.48-1.05-.72-1.15-.92-1.73-1.87-1.51-2.68.22-.8 1.2-1.33 2.64-1.53a6.66 6.66 0 0 1 12.17 3.3c1.14.92 1.73 1.87 1.51 2.68-.22.8-1.21 1.33-2.67 1.53-.39.06-.82.09-1.27.1-1.47.02-3.23-.2-5.08-.7a18.6 18.6 0 0 1-4.74-1.98zm10.56 1.67c.48-.83.76-1.8.77-2.82v-.04a5.73 5.73 0 0 0-11.46 0c1.2.8 3 1.58 5.08 2.15 2.16.59 4.17.82 5.61.71zm1.15-.2c.57-.16.94-.43 1.04-.79.1-.37-.1-.8-.52-1.24v.1a6.59 6.59 0 0 1-.52 1.94zm-12.17-5.44l.05-.1c-.68.16-1.1.44-1.22.84-.1.4.12.85.6 1.32.08-.73.28-1.42.57-2.06z"/></g><path fill="none" stroke="#7A440F" stroke-linejoin="round" stroke-opacity=".7" stroke-width="4" d="M27.4 112.1h-9.33L7.6 71.48h131.66l-9.2 40.6H27.41"/></g><g fill="#FFF"><path d="M31.3 134.13c0 .53 0 1.06-.02 1.59-.02.52-.07 1.03-.16 1.53-.11 1.03-.53 1.54-1.26 1.54-.74 0-1.11-.46-1.11-1.38a32.48 32.48 0 0 1 .1-2.7 113.04 113.04 0 0 0 .07-2.25c0-.75-.1-1.46-.28-2.14a5.2 5.2 0 0 0-.83-1.77c-.38-.5-.85-.9-1.42-1.18a3.99 3.99 0 0 0-2-.37 4.69 4.69 0 0 0-3.35 1.78 5.44 5.44 0 0 0-1.23 3.49 110.09 110.09 0 0 0 .08 4.71c0 .12 0 .23-.02.32-.04.47-.2.82-.45 1.06-.26.24-.54.37-.84.4a.9.9 0 0 1-.73-.3 1.57 1.57 0 0 1-.43-.9 87.65 87.65 0 0 1-.12-12.41l.12-.97c.11-.89.56-1.3 1.34-1.25.74 0 1.11.43 1.11 1.26l-.06 2.94.2.05c.56-1 1.23-1.72 2.01-2.15a5.8 5.8 0 0 1 2.84-.65c.91 0 1.77.17 2.56.52.8.34 1.47.85 2.05 1.53a7.39 7.39 0 0 1 1.35 2.52c.32 1 .49 2.18.49 3.5v1.68zM35.2 125.1c-.03-.27-.01-.5.05-.67a.99.99 0 0 1 .7-.67c.17-.04.35-.07.54-.07.33 0 .64.1.91.3.28.21.43.51.46.9l-.03 3.13v3.52a10.98 10.98 0 0 0 .02.95l.01.26a3.31 3.31 0 0 0 1.13 2.62 3.98 3.98 0 0 0 2.7.91c.64-.01 1.23-.07 1.77-.16a4.71 4.71 0 0 0 1.42-.44c.4-.21.73-.5.97-.86.24-.37.37-.83.4-1.4l.18-8.3c0-.37.1-.63.3-.79.22-.15.49-.24.82-.25a3.59 3.59 0 0 1 .95.31c.26.17.43.36.5.58v1.14a116 116 0 0 1-.14 5.89 92.59 92.59 0 0 0-.03 2.2 4.23 4.23 0 0 1-1.23 2.85c-.36.34-.76.64-1.22.88a7.8 7.8 0 0 1-1.43.58 11.9 11.9 0 0 1-2.98.4c-.93 0-1.82-.11-2.65-.31a5.82 5.82 0 0 1-2.16-.98 4.8 4.8 0 0 1-1.46-1.82 6.27 6.27 0 0 1-.52-2.8v-.68a62.27 62.27 0 0 1 .01-1.93v-.84l.02-2.25v-2.2zM59.1 125.27c-.63 0-1.22.1-1.77.27a4.6 4.6 0 0 0-1.46.8 3.71 3.71 0 0 0-1.37 3c0 1.38.36 2.51 1.08 3.38a3.7 3.7 0 0 0 3.05 1.36c1.21 0 2.29-.28 3.22-.84a4.73 4.73 0 0 0 1.98-2.33 7.23 7.23 0 0 0-1.17-4.06c-.71-1.05-1.9-1.58-3.56-1.58zm-.08 19.31c-.43 0-.9-.03-1.44-.1a6.46 6.46 0 0 1-1.6-.42 5.49 5.49 0 0 1-1.5-.91c-.46-.4-.85-.92-1.15-1.58-.1-.3-.16-.55-.16-.78 0-.28.07-.54.2-.76a2 2 0 0 1 .55-.59c.23-.16.44-.25.61-.25.22 0 .43.11.64.32.2.22.4.53.61.95v-.02c.1.2.24.39.44.6a3.75 3.75 0 0 0 2.8 1.16 3.99 3.99 0 0 0 3.01-1.3c.37-.39.67-.84.91-1.35.25-.5.44-1.04.58-1.6.15-.57.24-1.14.3-1.71.05-.57.07-1.12.06-1.63-.92.63-1.84 1.1-2.76 1.42-.92.32-1.82.47-2.7.47-.98 0-1.87-.2-2.66-.59-.8-.4-1.48-.92-2.04-1.57a7.26 7.26 0 0 1-1.77-4.71c0-2.42.87-4.28 2.61-5.58a7.6 7.6 0 0 1 4.64-1.53c.9 0 1.71.12 2.42.37a6.06 6.06 0 0 1 3.2 2.55c.37.59.67 1.22.9 1.9.24.67.42 1.38.54 2.13a20.81 20.81 0 0 1 .3 3.82c0 1.36-.1 2.67-.33 3.92a12.2 12.2 0 0 1-1.07 3.37 7.88 7.88 0 0 1-2.4 2.88 6.2 6.2 0 0 1-3.74 1.12zM76.38 125.27c-.63 0-1.22.1-1.77.27a4.6 4.6 0 0 0-1.46.8 3.71 3.71 0 0 0-1.37 3c0 1.38.36 2.51 1.08 3.38a3.7 3.7 0 0 0 3.05 1.36c1.21 0 2.29-.28 3.22-.84a4.73 4.73 0 0 0 1.98-2.33 7.23 7.23 0 0 0-1.17-4.06c-.71-1.05-1.9-1.58-3.56-1.58zm-.08 19.31c-.43 0-.9-.03-1.44-.1a6.46 6.46 0 0 1-1.6-.42 5.49 5.49 0 0 1-1.5-.91c-.46-.4-.85-.92-1.15-1.58-.1-.3-.16-.55-.16-.78 0-.28.07-.54.2-.76.14-.22.32-.42.55-.59.23-.16.44-.25.61-.25.22 0 .43.11.64.32.2.22.4.53.61.95v-.02c.1.2.24.39.44.6a3.75 3.75 0 0 0 2.8 1.16 3.99 3.99 0 0 0 3.01-1.3c.37-.39.67-.84.91-1.35.25-.5.44-1.04.58-1.6.15-.57.24-1.14.3-1.71.05-.57.07-1.12.06-1.63-.92.63-1.84 1.1-2.76 1.42-.92.32-1.82.47-2.7.47-.98 0-1.87-.2-2.66-.59-.8-.4-1.48-.92-2.04-1.57a7.26 7.26 0 0 1-1.77-4.71c0-2.42.87-4.28 2.61-5.58a7.6 7.6 0 0 1 4.64-1.53c.9 0 1.71.12 2.42.37a6.06 6.06 0 0 1 3.2 2.55c.37.59.67 1.22.9 1.9.24.67.42 1.38.54 2.13a20.78 20.78 0 0 1 .3 3.82c0 1.36-.1 2.67-.33 3.92a12.2 12.2 0 0 1-1.07 3.37 7.88 7.88 0 0 1-2.4 2.88 6.2 6.2 0 0 1-3.74 1.12zM97.23 129.11c.24-.1.4-.26.47-.45.08-.19.11-.42.11-.69 0-.5-.1-.97-.33-1.4a3.57 3.57 0 0 0-2.06-1.8 3.5 3.5 0 0 0-1.34-.2 6.2 6.2 0 0 0-3.52 1.57c-.47.44-.82.98-1.05 1.6-.24.64-.4 1.37-.48 2.2.37.15.76.26 1.17.33a11.61 11.61 0 0 0 5.46-.57c.49-.16 1-.36 1.57-.59zm2.08 1.43a6.4 6.4 0 0 1-1.62.88c-.65.26-1.33.47-2.06.64a20.86 20.86 0 0 1-4.12.54 14.11 14.11 0 0 1-2.3-.2 7.27 7.27 0 0 0 1.77 3.61 4.53 4.53 0 0 0 3.36 1.26 6.18 6.18 0 0 0 3.71-1.37c.35-.27.67-.57.95-.9a.85.85 0 0 1 .48-.26c.21-.04.37-.06.49-.06.24 0 .44.09.6.27.17.18.26.4.26.65 0 .2-.05.43-.13.65-.08.22-.21.45-.39.7-.36.47-.8.9-1.28 1.27a8.46 8.46 0 0 1-5.06 1.72 6.43 6.43 0 0 1-4.52-1.82 8.6 8.6 0 0 1-1.84-2.62 12.28 12.28 0 0 1-1.1-4.73c.04-1.15.23-2.26.6-3.33.36-1.06.87-2 1.53-2.8a7.4 7.4 0 0 1 2.39-1.95c.94-.49 1.99-.73 3.16-.73a6.03 6.03 0 0 1 4.67 2c.55.61.98 1.32 1.28 2.13.3.81.45 1.67.45 2.57-.03.39-.15.72-.36 1-.2.28-.51.58-.92.88zM108.44 126.66a123.99 123.99 0 0 0-.02 5.36c0 .4.03.86.08 1.36.05.5.16.97.31 1.4.16.43.37.8.65 1.1.27.3.64.44 1.1.44.5 0 .9-.05 1.2-.16.3-.1.58-.26.83-.47.06-.05.16-.1.28-.16a.79.79 0 0 1 .29-.09c.14 0 .27.04.38.12.12.08.22.18.3.3a1.62 1.62 0 0 1 .23.8c0 .26-.06.5-.15.72-.1.22-.25.4-.47.55-.5.33-.98.58-1.44.76-.45.17-.95.25-1.48.25a4.4 4.4 0 0 1-1.64-.27 3.57 3.57 0 0 1-1.96-1.84c-.2-.43-.35-.88-.47-1.36-.12-.48-.2-.97-.26-1.49a35.88 35.88 0 0 1-.2-4.3v-1.4c0-.48 0-1.02-.02-1.62l-1.5.05c-.49.02-.99.03-1.5.03a2.17 2.17 0 0 1-.62-.62 1.19 1.19 0 0 1-.2-.82c.02-.65.4-.98 1.15-.98l2.77-.07a527.08 527.08 0 0 1 .04-5.17c.03-.58.05-1.06.09-1.43.03-.38.08-.69.15-.93a1.11 1.11 0 0 1 .54-.72c.13-.07.27-.12.41-.15.15-.03.29-.05.42-.05.26 0 .5.12.7.36.21.24.31.54.3.9l-.22 7.2c.6-.04 1.18-.06 1.74-.07.56 0 1.14-.02 1.73-.05.28.11.55.27.8.48.23.22.36.45.36.7 0 .61-.37 1.03-1.1 1.25l-3.6.1zM126.5 120.63a2 2 0 0 1 .55.64c.1.21.15.39.15.53 0 .22-.05.44-.14.67-.15.2-.3.36-.47.5-.16.13-.3.2-.42.2-.18 0-.36-.1-.55-.28a3.8 3.8 0 0 0-1.43-.6 10 10 0 0 0-1.76-.13 4.22 4.22 0 0 0-3.13 1.42c-.37.43-.65.93-.82 1.49a4.73 4.73 0 0 0-.2 1.76c.05.57.22 1.04.52 1.41.3.38.72.64 1.29.78a119.67 119.67 0 0 0 3.65.83 26.37 26.37 0 0 1 3.54 1.01c.39.15.74.37 1.04.66a4.36 4.36 0 0 1 1.24 2.15c.11.41.17.81.18 1.2a4.86 4.86 0 0 1-.57 2.09 5.52 5.52 0 0 1-1.3 1.6 5.94 5.94 0 0 1-3.83 1.43c-.54 0-1.1-.02-1.68-.07a10.9 10.9 0 0 1-1.68-.27 7.52 7.52 0 0 1-1.54-.54c-.48-.24-.9-.54-1.26-.92-.36-.33-.54-.7-.54-1.1 0-.24.04-.46.12-.68.09-.18.2-.32.32-.42a.7.7 0 0 1 .45-.16c.11 0 .27.04.45.1l-.03-.04a7.02 7.02 0 0 0 4.88 1.74h.3c.12 0 .23 0 .32-.02 1-.04 1.81-.35 2.44-.93.23-.23.4-.5.54-.78a2.28 2.28 0 0 0 .18-1.26l-.05-.3a2.2 2.2 0 0 0-1.07-1.33 8 8 0 0 0-3.11-1.06 58.53 58.53 0 0 1-3-.5 6 6 0 0 1-1.86-.58 4.71 4.71 0 0 1-1.41-1.08c-.4-.47-.7-.98-.89-1.54a5.47 5.47 0 0 1-.29-1.8c0-.63.1-1.27.31-1.91.21-.65.54-1.28.98-1.91h-.02c.6-.82 1.43-1.5 2.48-2.05a7.6 7.6 0 0 1 3.43-.87c.67 0 1.39.08 2.14.23l1.56.69z"/></g></svg>